<svg id="Layer_1" enable-background="new 0 0 512 512" height="512" viewBox="0 0 512 512" width="512" xmlns="http://www.w3.org/2000/svg"><g><path d="m0 71.389v292.225c0 39.427 32.415 71.389 72.401 71.389h228.264l87.101 76.997v-76.998h51.833c39.986 0 72.401-31.962 72.401-71.389v-292.224c0-39.427-32.415-71.389-72.401-71.389h-367.198c-39.986 0-72.401 31.962-72.401 71.389z" fill="#fff5b5"/><g><path d="m439.599 0h-41.207c39.986 0 72.401 31.962 72.401 71.389v292.225c0 39.427-32.415 71.389-72.401 71.389h41.207c39.986 0 72.401-31.962 72.401-71.389v-292.225c0-39.427-32.415-71.389-72.401-71.389z" fill="#ffef8f"/></g><g><circle cx="253.742" cy="216.997" fill="#ffd54d" r="155.746"/><path d="m253.742 61.252c-6.985 0-13.862.46-20.604 1.351 76.277 10.081 135.142 75.363 135.142 154.394s-58.864 144.313-135.141 154.395c6.741.891 13.619 1.351 20.604 1.351 86.016 0 155.746-69.73 155.746-155.745-.001-86.017-69.731-155.746-155.747-155.746z" fill="#ffc919"/><g><g fill="#faa700"><path d="m227.434 192.611c-4.267 0-7.726-3.459-7.726-7.726 0-10.007-8.141-18.148-18.148-18.148s-18.148 8.141-18.148 18.148c0 4.268-3.459 7.726-7.726 7.726s-7.726-3.459-7.726-7.726c0-18.527 15.073-33.601 33.601-33.601s33.601 15.073 33.601 33.601c-.002 4.267-3.461 7.726-7.728 7.726z"/><path d="m331.8 192.611c-4.267 0-7.726-3.459-7.726-7.726 0-10.007-8.141-18.148-18.148-18.148s-18.148 8.141-18.148 18.148c0 4.268-3.459 7.726-7.726 7.726s-7.726-3.459-7.726-7.726c0-18.527 15.073-33.601 33.601-33.601s33.601 15.073 33.601 33.601c-.002 4.267-3.461 7.726-7.728 7.726z"/></g><path d="m337.721 226.657c0 46.282-37.599 83.8-83.979 83.8s-83.979-37.519-83.979-83.8z" fill="#fff"/></g></g></g></svg>